<svg width="103" height="33" viewBox="0 0 103 33" fill="none" xmlns="http://www.w3.org/2000/svg">
<g opacity="0.4">
<circle cx="1.5" cy="1.5" r="1.5" fill="#2684FF"/>
<circle cx="11.5" cy="1.5" r="1.5" fill="#2684FF"/>
<circle cx="21.5" cy="1.5" r="1.5" fill="#2684FF"/>
<circle cx="31.5" cy="1.5" r="1.5" fill="#2684FF"/>
<circle cx="41.5" cy="1.5" r="1.5" fill="#2684FF"/>
<circle cx="51.5" cy="1.5" r="1.5" fill="#2684FF"/>
<circle cx="61.5" cy="1.5" r="1.5" fill="#2684FF"/>
<circle cx="71.5" cy="1.5" r="1.5" fill="#2684FF"/>
<circle cx="81.5" cy="1.5" r="1.5" fill="#2684FF"/>
<circle cx="91.5" cy="1.5" r="1.5" fill="#2684FF"/>
<circle cx="101.5" cy="1.5" r="1.5" fill="#2684FF"/>
<circle cx="1.5" cy="11.5" r="1.5" fill="#2684FF"/>
<circle cx="11.5" cy="11.5" r="1.5" fill="#2684FF"/>
<circle cx="21.5" cy="11.5" r="1.5" fill="#2684FF"/>
<circle cx="31.5" cy="11.5" r="1.5" fill="#2684FF"/>
<circle cx="41.5" cy="11.5" r="1.5" fill="#2684FF"/>
<circle cx="51.5" cy="11.5" r="1.5" fill="#2684FF"/>
<circle cx="61.5" cy="11.5" r="1.5" fill="#2684FF"/>
<circle cx="71.5" cy="11.5" r="1.5" fill="#2684FF"/>
<circle cx="81.5" cy="11.5" r="1.5" fill="#2684FF"/>
<circle cx="91.5" cy="11.5" r="1.5" fill="#2684FF"/>
<circle cx="101.5" cy="11.5" r="1.5" fill="#2684FF"/>
<circle cx="1.5" cy="21.5" r="1.5" fill="#2684FF"/>
<circle cx="11.5" cy="21.5" r="1.5" fill="#2684FF"/>
<circle cx="21.5" cy="21.5" r="1.5" fill="#2684FF"/>
<circle cx="31.5" cy="21.5" r="1.5" fill="#2684FF"/>
<circle cx="41.5" cy="21.5" r="1.5" fill="#2684FF"/>
<circle cx="51.5" cy="21.5" r="1.5" fill="#2684FF"/>
<circle cx="61.5" cy="21.5" r="1.5" fill="#2684FF"/>
<circle cx="71.5" cy="21.5" r="1.5" fill="#2684FF"/>
<circle cx="81.5" cy="21.5" r="1.5" fill="#2684FF"/>
<circle cx="91.5" cy="21.5" r="1.5" fill="#2684FF"/>
<circle cx="101.5" cy="21.5" r="1.5" fill="#2684FF"/>
<circle cx="1.5" cy="31.5" r="1.5" fill="#2684FF"/>
<circle cx="11.5" cy="31.5" r="1.5" fill="#2684FF"/>
<circle cx="21.5" cy="31.5" r="1.5" fill="#2684FF"/>
<circle cx="31.5" cy="31.5" r="1.5" fill="#2684FF"/>
<circle cx="41.5" cy="31.5" r="1.5" fill="#2684FF"/>
<circle cx="51.5" cy="31.5" r="1.5" fill="#2684FF"/>
<circle cx="61.5" cy="31.5" r="1.5" fill="#2684FF"/>
<circle cx="71.5" cy="31.5" r="1.5" fill="#2684FF"/>
<circle cx="81.5" cy="31.5" r="1.5" fill="#2684FF"/>
<circle cx="91.5" cy="31.5" r="1.5" fill="#2684FF"/>
<circle cx="101.5" cy="31.5" r="1.5" fill="#2684FF"/>
</g>
</svg>
